<?xml version="1.0" standalone="no"?>
<!DOCTYPE svg PUBLIC "-//W3C//DTD SVG 20010904//EN"
 "http://www.w3.org/TR/2001/REC-SVG-20010904/DTD/svg10.dtd">
<svg version="1.0" xmlns="http://www.w3.org/2000/svg"
 width="800.000000pt" height="800.000000pt" viewBox="0 0 800.000000 800.000000"
 preserveAspectRatio="xMidYMid meet">
<metadata>
Created by potrace 1.11, written by Peter Selinger 2001-2013
</metadata>
<g transform="translate(0.000000,800.000000) scale(0.100000,-0.100000)"
fill="#000000" stroke="none">
<path d="M5039 6728 c-52 -56 -107 -116 -124 -134 -16 -17 -52 -56 -80 -86
-73 -79 -253 -274 -306 -333 -26 -27 -57 -62 -70 -76 -72 -80 -178 -196 -204
-224 -16 -17 -73 -78 -125 -135 -52 -57 -114 -124 -138 -149 -24 -25 -74 -80
-110 -121 -66 -73 -147 -160 -230 -248 l-42 -45 -38 40 c-20 22 -57 62 -82 89
-76 83 -254 277 -271 295 -9 9 -77 83 -151 165 -191 211 -169 197 -224 138
-50 -55 -196 -214 -232 -253 -13 -14 -41 -45 -63 -68 -21 -23 -39 -44 -39 -48
0 -3 22 -28 48 -55 27 -27 73 -77 103 -111 30 -34 68 -76 84 -93 17 -18 54
-59 84 -92 155 -171 324 -353 447 -484 39 -41 95 -102 125 -134 30 -33 91 -97
135 -144 94 -97 70 -101 189 32 39 43 81 90 95 105 14 15 61 66 104 114 44 48
91 100 105 115 14 15 64 70 111 121 47 51 104 114 128 139 23 25 77 84 120
130 42 47 88 97 102 112 30 32 185 202 218 239 37 41 195 211 217 235 11 11
68 73 126 136 57 63 117 129 133 145 16 17 63 68 105 113 42 46 94 104 116
127 22 24 63 70 92 102 28 32 73 81 100 109 26 28 80 86 118 129 39 43 94 103
123 134 28 31 52 59 52 63 0 5 -170 8 -378 8 l-379 0 -94 -102z"/>
<path d="M2102 6782 c-18 -20 -60 -67 -95 -104 -34 -36 -114 -122 -177 -189
-63 -68 -141 -150 -172 -183 -32 -33 -58 -61 -58 -62 0 -1 -25 -28 -56 -60
-31 -33 -81 -86 -111 -119 -30 -33 -85 -92 -122 -130 -65 -70 -278 -298 -378
-404 -28 -31 -71 -77 -95 -102 -24 -25 -92 -99 -152 -163 -61 -65 -133 -142
-162 -173 -29 -31 -93 -99 -143 -152 -49 -53 -107 -115 -130 -139 -23 -24 -41
-45 -41 -47 0 -3 170 -5 378 -5 l377 0 35 33 c19 19 69 71 110 117 41 46 86
96 100 110 143 153 304 329 343 374 10 11 64 70 120 130 119 128 118 127 177
192 87 96 246 269 310 339 110 119 247 268 276 300 55 61 220 240 249 271 17
18 46 49 65 70 19 22 54 60 79 87 l44 47 -369 -1 -369 0 -33 -37z"/>
<path d="M2814 6732 c-101 -108 -122 -131 -193 -210 -31 -35 -74 -83 -96 -106
-22 -24 -83 -90 -135 -146 -138 -150 -213 -230 -370 -399 -25 -27 -79 -86
-120 -131 -41 -45 -91 -99 -110 -119 -40 -42 -195 -212 -255 -281 -22 -25 -43
-47 -46 -50 -3 -3 -50 -54 -105 -115 -54 -60 -108 -119 -119 -131 -17 -17 -91
-97 -242 -261 l-33 -35 21 -27 c27 -34 216 -243 341 -376 31 -33 69 -73 84
-90 15 -16 54 -60 88 -96 173 -186 268 -288 284 -306 31 -36 152 -170 190
-210 20 -22 57 -62 82 -89 154 -171 211 -233 264 -288 32 -33 84 -90 114 -125
65 -72 72 -80 197 -216 51 -55 103 -112 116 -127 35 -39 180 -197 209 -228 14
-15 66 -71 115 -126 50 -54 104 -112 120 -130 17 -17 52 -55 79 -85 50 -56
186 -202 269 -291 l47 -51 53 59 c28 32 82 90 118 129 36 38 90 97 120 129 30
33 62 66 72 75 9 8 17 20 17 26 0 5 -31 42 -68 81 -37 39 -89 95 -116 125 -27
30 -76 83 -109 119 -65 72 -106 116 -247 270 -52 57 -108 117 -124 134 -15 17
-60 66 -100 109 -39 43 -91 100 -116 126 -25 27 -76 83 -115 126 -38 43 -79
88 -90 99 -11 12 -60 66 -110 121 -49 55 -99 109 -110 121 -27 29 -177 192
-211 229 -14 17 -66 73 -114 125 -49 52 -100 109 -115 125 -29 31 -74 80 -260
279 -60 65 -121 132 -135 148 -14 17 -40 46 -58 65 -35 38 -35 38 13 89 46 48
231 248 246 265 20 24 186 204 219 239 14 15 61 67 105 115 44 49 91 101 105
115 14 14 70 75 125 135 55 61 121 133 146 160 26 28 66 71 89 98 24 26 47 47
52 47 5 0 34 -28 66 -62 31 -34 70 -76 86 -93 15 -16 58 -63 94 -104 37 -40
89 -97 117 -126 27 -29 86 -92 130 -140 85 -94 102 -112 180 -195 l49 -52 24
28 c14 16 54 61 91 100 36 39 100 109 141 155 41 46 86 94 99 106 25 24 24 27
-14 69 -5 6 -44 49 -85 95 -41 45 -91 100 -110 120 -19 21 -60 65 -90 99 -30
34 -71 79 -90 99 -19 21 -73 80 -120 131 -47 52 -96 106 -110 121 -14 15 -59
64 -100 110 -115 127 -116 128 -209 229 -48 52 -101 110 -117 127 l-29 33 -81
-88z"/>
<path d="M5875 6778 c-32 -36 -104 -117 -223 -247 -35 -38 -212 -229 -247
-266 -30 -31 -191 -207 -230 -249 -11 -13 -42 -47 -70 -77 -27 -31 -86 -95
-130 -144 -44 -49 -91 -101 -105 -116 -14 -15 -65 -71 -115 -125 -49 -54 -114
-122 -142 -152 -29 -29 -61 -64 -72 -78 -20 -26 -116 -131 -333 -365 -18 -20
-69 -75 -113 -123 -44 -49 -98 -107 -120 -131 -22 -23 -72 -78 -112 -121 -114
-127 -123 -137 -169 -186 -24 -26 -44 -51 -44 -56 0 -5 159 -8 380 -8 l381 1
37 41 c82 92 211 233 277 304 39 41 90 97 115 124 25 28 54 60 65 71 11 12 43
46 70 76 28 30 98 106 156 169 59 63 117 127 130 141 13 15 65 71 114 125 50
53 100 109 113 123 87 97 216 236 364 395 l65 69 34 -37 c19 -21 45 -50 59
-65 23 -24 123 -133 270 -294 30 -33 66 -73 80 -87 14 -15 66 -71 115 -125 50
-54 95 -103 100 -109 17 -18 135 -146 200 -217 33 -37 96 -106 140 -155 131
-145 112 -134 236 -135 338 -3 627 1 641 8 4 2 0 12 -10 21 -9 10 -55 60 -102
112 -47 52 -92 101 -100 109 -29 31 -285 311 -335 367 -87 98 -220 245 -263
292 -24 26 -60 65 -80 87 -20 23 -75 83 -122 134 -47 51 -94 103 -105 115 -11
12 -59 65 -108 118 -48 52 -97 106 -108 119 -11 13 -42 47 -68 74 -42 45 -164
179 -261 290 -98 110 -207 225 -214 225 -1 0 -20 -19 -41 -42z"/>
<path d="M4250 6315 c7 -9 15 -13 17 -11 7 7 -7 26 -19 26 -6 0 -6 -6 2 -15z"/>
<path d="M5876 5908 c-21 -23 -72 -79 -115 -124 -42 -44 -92 -98 -111 -120
-20 -21 -55 -60 -78 -85 l-42 -47 32 -37 c18 -21 47 -52 63 -69 17 -18 71 -76
120 -130 50 -54 104 -113 120 -130 17 -18 68 -74 115 -125 101 -111 116 -127
200 -217 l64 -69 383 -1 c419 -1 395 -5 336 53 -13 12 -23 24 -23 26 0 2 -21
26 -47 54 -27 27 -86 92 -133 143 -47 52 -101 110 -120 130 -19 20 -50 54 -69
76 -19 21 -61 68 -95 104 -34 36 -98 106 -142 155 -45 50 -94 104 -109 120
-41 45 -203 221 -260 283 l-51 54 -38 -44z"/>
<path d="M220 4724 c0 -7 114 -136 207 -234 28 -30 60 -65 71 -78 11 -13 58
-64 103 -113 46 -50 94 -103 108 -117 13 -15 66 -72 117 -127 51 -55 101 -109
111 -121 10 -12 61 -67 113 -124 52 -56 106 -114 119 -129 13 -14 70 -75 125
-136 92 -99 184 -200 211 -231 10 -12 129 -142 175 -193 121 -133 200 -219
225 -245 17 -18 73 -78 125 -135 52 -56 117 -126 144 -154 26 -29 74 -81 106
-117 32 -36 73 -81 91 -101 32 -34 156 -169 264 -288 28 -30 77 -84 111 -120
34 -36 72 -78 85 -92 39 -44 192 -210 219 -239 14 -15 63 -69 110 -120 47 -51
96 -105 110 -120 20 -21 153 -167 195 -214 68 -76 113 -123 128 -135 21 -15
14 -21 197 179 52 56 106 115 120 130 45 48 123 134 210 230 47 52 99 108 115
126 17 17 64 69 105 115 41 46 89 98 105 115 17 18 64 69 105 115 41 45 87 96
102 112 15 16 67 72 115 125 48 52 97 105 108 116 11 12 43 47 70 77 167 183
234 256 265 289 19 21 76 82 125 135 50 54 101 110 115 125 14 14 66 71 115
125 126 137 177 193 225 245 23 25 65 71 92 102 28 31 71 79 97 106 47 50 200
216 242 263 44 49 194 212 229 249 19 20 73 79 120 130 47 52 100 110 119 129
49 52 201 217 265 286 l55 60 -386 3 -385 2 -20 -22 c-40 -46 -155 -173 -210
-233 -31 -33 -67 -72 -78 -85 -12 -14 -61 -67 -108 -119 -48 -52 -98 -106
-110 -120 -32 -35 -211 -228 -242 -261 -43 -46 -214 -232 -233 -254 -30 -34
-177 -194 -253 -275 -39 -42 -91 -98 -115 -125 -24 -26 -57 -63 -74 -80 -16
-18 -66 -71 -110 -120 -44 -48 -91 -100 -105 -115 -14 -15 -57 -63 -97 -107
-39 -43 -91 -100 -115 -125 -37 -41 -175 -190 -233 -255 -11 -12 -60 -65 -109
-118 -49 -53 -105 -115 -125 -138 -20 -23 -56 -63 -81 -89 -25 -25 -80 -85
-123 -133 -43 -47 -82 -86 -86 -86 -10 0 -32 22 -116 115 -38 43 -90 99 -115
125 -40 42 -192 207 -245 266 -11 12 -58 63 -105 114 -47 51 -94 103 -105 115
-118 132 -257 282 -343 373 -29 31 -79 85 -110 120 -31 36 -70 79 -87 96 -16
18 -75 81 -130 141 -54 61 -116 128 -136 150 -21 22 -50 54 -65 70 -15 17 -73
80 -129 140 -56 61 -125 135 -152 166 -28 32 -59 66 -69 76 -11 10 -53 57 -94
103 -41 46 -88 98 -105 115 -61 65 -211 229 -228 249 -10 12 -63 68 -117 126
-53 58 -117 126 -140 153 l-42 47 -379 0 c-209 0 -379 -3 -379 -6z"/>
<path d="M6970 4658 c-36 -39 -83 -90 -105 -114 -22 -23 -60 -64 -85 -91 -44
-48 -69 -75 -255 -278 -49 -53 -104 -113 -122 -132 -18 -19 -72 -78 -120 -130
-103 -112 -120 -130 -235 -254 -47 -52 -97 -106 -110 -120 -12 -14 -45 -50
-72 -80 -27 -30 -74 -81 -105 -115 -31 -33 -73 -80 -95 -105 -39 -45 -204
-225 -286 -311 -25 -26 -60 -64 -79 -85 -19 -21 -61 -67 -95 -103 -34 -36 -83
-91 -111 -121 -110 -122 -211 -234 -235 -259 -14 -15 -73 -78 -131 -141 -59
-63 -120 -128 -135 -145 -16 -18 -67 -74 -114 -125 -47 -51 -94 -102 -105
-115 -11 -12 -56 -61 -100 -109 -44 -48 -91 -99 -104 -114 -23 -24 -186 -202
-241 -261 -90 -97 -215 -233 -253 -275 l-45 -50 371 -3 c364 -3 417 0 417 17
0 5 19 28 43 52 23 24 80 86 127 137 47 52 99 108 115 126 17 17 75 81 130
141 55 60 127 137 159 172 32 35 68 73 78 86 21 24 156 170 254 276 34 36 73
78 85 92 23 26 147 163 199 219 14 15 57 63 95 106 39 42 84 92 100 109 27 29
160 173 230 250 16 17 51 55 79 86 28 30 89 97 136 149 47 51 99 107 115 125
26 27 153 166 223 244 13 14 61 66 105 114 111 119 119 128 222 242 140 153
198 216 225 245 14 15 47 51 74 81 46 51 226 246 291 315 175 186 285 309 285
318 0 3 -170 6 -377 6 l-378 0 -65 -72z"/>
<path d="M5685 490 c3 -5 8 -10 11 -10 2 0 4 5 4 10 0 6 -5 10 -11 10 -5 0 -7
-4 -4 -10z"/>
</g>
</svg>
