<svg version="1.1" id="Layer_1" xmlns="http://www.w3.org/2000/svg" x="0" y="0" viewBox="0 0 124 72" xml:space="preserve">
  <path class="st3" d="M47.9 35.9c-12.41 0-18.68-3.66-24.76-7.2C17.15 25.2 11.59 22 0 22v-3c12.41 0 18.58 3.56 24.66 7.11 5.99 3.5 11.65 6.8 23.24 6.8 10.31 0 15.78-3.15 21.56-6.49 6.4-3.69 13.01-7.51 26.17-7.51 10.85 0 16.73 3.67 21.46 6.62 2.06 1.29 3.88 2.43 5.81 3.06.72.24 1.16.97 1.01 1.72-.17.87-1.08 1.42-1.92 1.14-2.29-.75-4.34-2.03-6.49-3.38-4.63-2.89-9.87-6.17-19.87-6.17-12.36 0-18.62 3.61-24.67 7.11-5.87 3.39-11.94 6.89-23.06 6.89zM47.9 53.51c-12.41 0-18.68-3.66-24.76-7.2-5.99-3.5-11.55-6.7-23.15-6.7v-3c12.41 0 18.58 3.56 24.66 7.11 5.99 3.5 11.65 6.8 23.24 6.8 10.31 0 15.78-3.15 21.56-6.49 6.4-3.69 13.01-7.51 26.17-7.51 10.85 0 16.73 3.67 21.46 6.62 2.06 1.29 3.88 2.43 5.81 3.06.72.24 1.16.97 1.01 1.72-.17.87-1.08 1.42-1.92 1.14-2.29-.75-4.34-2.03-6.49-3.38-4.63-2.89-9.87-6.17-19.87-6.17-12.36 0-18.62 3.61-24.67 7.11-5.86 3.39-11.93 6.89-23.05 6.89zM47.9 71.85c-12.41 0-18.68-3.66-24.76-7.2-5.99-3.5-11.55-6.7-23.15-6.7v-3c12.41 0 18.58 3.56 24.66 7.11 5.99 3.5 11.65 6.8 23.24 6.8 10.31 0 15.78-3.15 21.56-6.49 6.4-3.69 13.01-7.51 26.17-7.51 10.85 0 16.73 3.67 21.46 6.62 2.06 1.29 3.88 2.43 5.81 3.06.72.24 1.16.97 1.01 1.72-.17.87-1.08 1.42-1.92 1.14-2.29-.75-4.34-2.03-6.49-3.38-4.63-2.89-9.87-6.17-19.87-6.17-12.36 0-18.62 3.61-24.67 7.11-5.86 3.38-11.93 6.89-23.05 6.89zM47.9 17.48c-12.41 0-18.68-3.66-24.76-7.2-5.99-3.5-11.55-6.7-23.14-6.7v-3c12.41 0 18.58 3.56 24.66 7.11 5.99 3.5 11.65 6.8 23.24 6.8 10.31 0 15.78-3.15 21.56-6.49C75.86 4.31 82.47.49 95.63.49c10.85 0 16.73 3.67 21.46 6.62 2.06 1.29 3.88 2.43 5.81 3.06.72.24 1.16.97 1.01 1.72-.17.87-1.08 1.42-1.92 1.14-2.29-.75-4.34-2.03-6.49-3.38-4.63-2.89-9.87-6.17-19.87-6.17-12.36 0-18.62 3.61-24.67 7.11-5.87 3.39-11.94 6.89-23.06 6.89z"/>
</svg>
